# xmcd
#
# Track frame offsets: 
#        150
#        5007
#        22140
#        36395
#        60712
#        79820
#        94995
#        112925
#        132662
#        135680
#        154837
#        177077
#
# Disc length: 2704 seconds
#
# Revision: 0
# Processed by: cddbd v1.4PL0 Copyright (c) Steve Scherf et al.
# Submitted via: ExactAudioCopy v0.95a3
#
DISCID=a50a8e0c
DTITLE=The Jack Brothers - Ventôse - Blues
DYEAR=2001
DGENRE=Blues
TTITLE0=Preludium
TTITLE1=Ten foot feet blues
TTITLE2=Vacuum blues
TTITLE3=Hole in your pocket blues
TTITLE4=SOS blues
TTITLE5=Down town blues
TTITLE6=Monkey blues
TTITLE7=Dead meat blues
TTITLE8=Hello
TTITLE9=Pleas hold on blues
TTITLE10=Voodoo bues
TTITLE11=Postludium
EXTD=
EXTT0=
EXTT1=
EXTT2=
EXTT3=
EXTT4=
EXTT5=
EXTT6=
EXTT7=
EXTT8=
EXTT9=
EXTT10=
EXTT11=
PLAYORDER=
